<svg xmlns="http://www.w3.org/2000/svg" xmlns:xlink="http://www.w3.org/1999/xlink" width="1080" zoomAndPan="magnify" viewBox="0 0 810 1012.49997" height="1350" preserveAspectRatio="xMidYMid meet" version="1.0"><defs><clipPath id="1931709881"><path d="M 2 432.796875 L 809.800781 432.796875 L 809.800781 798.617188 L 2 798.617188 Z M 2 432.796875 " clip-rule="nonzero"/></clipPath></defs><path fill="#ffde59" d="M 704.679688 391.578125 C 629.121094 360.84375 710.371094 211.003906 766.433594 254.625 C 805.320312 283.773438 747.425781 351.808594 698.140625 335.371094 C 694.625 358.515625 703.230469 366.070312 713.664062 370.3125 C 726.761719 376.046875 746.199219 371.425781 758.507812 348.011719 C 758.863281 347.339844 759.277344 346.710938 759.753906 346.125 C 760.230469 345.535156 760.761719 345 761.34375 344.515625 C 761.925781 344.035156 762.550781 343.609375 763.214844 343.25 C 763.882812 342.890625 764.574219 342.597656 765.300781 342.371094 C 766.023438 342.148438 766.761719 341.996094 767.511719 341.917969 C 768.265625 341.839844 769.019531 341.835938 769.773438 341.902344 C 770.527344 341.972656 771.265625 342.113281 771.992188 342.328125 C 772.71875 342.542969 773.417969 342.828125 774.085938 343.179688 C 774.757812 343.53125 775.386719 343.945312 775.976562 344.421875 C 776.566406 344.898438 777.101562 345.425781 777.585938 346.007812 C 778.070312 346.589844 778.492188 347.214844 778.855469 347.878906 C 779.21875 348.542969 779.511719 349.238281 779.738281 349.960938 C 779.960938 350.683594 780.117188 351.421875 780.195312 352.175781 C 780.277344 352.925781 780.28125 353.679688 780.214844 354.433594 C 780.144531 355.1875 780.003906 355.929688 779.792969 356.65625 C 779.578125 357.382812 779.296875 358.078125 778.945312 358.75 C 760.960938 392.96875 728.335938 401.914062 704.679688 391.578125 Z M 703.859375 312.878906 C 720.820312 319.867188 741.375 306.824219 750.609375 293.460938 C 762.457031 276.289062 751.085938 267.488281 739.84375 270.886719 C 726.738281 274.816406 710.601562 293.050781 704.605469 310.710938 C 704.34375 311.4375 704.101562 312.167969 703.859375 312.878906 Z M 703.859375 312.878906 " fill-opacity="1" fill-rule="nonzero"/><path fill="#38b6ff" d="M 65.113281 395.109375 C 22.820312 395.109375 5.160156 353.148438 18.363281 311.59375 C 41.941406 235.363281 101.097656 235.265625 114.398438 268.046875 C 121.023438 284.375 116.296875 305.675781 102.632812 321.046875 C 102.128906 321.609375 101.574219 322.117188 100.96875 322.570312 C 100.363281 323.027344 99.722656 323.417969 99.039062 323.746094 C 98.359375 324.074219 97.652344 324.332031 96.921875 324.519531 C 96.1875 324.710938 95.445312 324.824219 94.691406 324.867188 C 93.9375 324.910156 93.183594 324.878906 92.433594 324.777344 C 91.6875 324.671875 90.957031 324.496094 90.242188 324.246094 C 89.527344 323.996094 88.84375 323.683594 88.191406 323.300781 C 87.539062 322.917969 86.933594 322.476562 86.367188 321.972656 C 85.800781 321.46875 85.289062 320.917969 84.835938 320.316406 C 84.378906 319.714844 83.984375 319.070312 83.652344 318.390625 C 83.324219 317.710938 83.0625 317.007812 82.871094 316.277344 C 82.675781 315.542969 82.558594 314.800781 82.511719 314.046875 C 82.464844 313.292969 82.496094 312.539062 82.597656 311.792969 C 82.699219 311.042969 82.871094 310.308594 83.117188 309.59375 C 83.363281 308.878906 83.675781 308.195312 84.054688 307.542969 C 84.433594 306.890625 84.875 306.277344 85.375 305.710938 C 95.925781 293.847656 98.710938 271.660156 84.507812 270.640625 C 49.125 266.597656 16.4375 355.710938 54.25 370.113281 C 92.082031 383.769531 137.894531 316.378906 151.398438 290.46875 C 156.734375 280.265625 176.0625 291.625 169.464844 304.273438 C 167.335938 308.367188 121.527344 395.105469 65.113281 395.109375 Z M 65.113281 395.109375 " fill-opacity="1" fill-rule="nonzero"/><path fill="#00bf63" d="M 301.050781 255.644531 C 293.0625 275.078125 274.710938 301.875 251.902344 302.175781 C 252.050781 269.207031 234.097656 250.714844 214.527344 248.8125 C 138.171875 240.15625 105.886719 394.210938 185.519531 394.210938 C 219.136719 394.210938 240.082031 357.234375 248.773438 325.097656 C 283.015625 326.753906 309.171875 295.664062 321.835938 264.5625 C 322.128906 263.878906 322.351562 263.175781 322.507812 262.449219 C 322.660156 261.722656 322.742188 260.988281 322.753906 260.246094 C 322.761719 259.5 322.699219 258.765625 322.566406 258.035156 C 322.429688 257.304688 322.222656 256.59375 321.949219 255.902344 C 321.671875 255.214844 321.332031 254.558594 320.929688 253.933594 C 320.523438 253.3125 320.0625 252.734375 319.542969 252.203125 C 319.023438 251.671875 318.460938 251.195312 317.847656 250.773438 C 317.234375 250.355469 316.585938 249.996094 315.90625 249.703125 C 315.222656 249.410156 314.519531 249.1875 313.789062 249.035156 C 313.0625 248.878906 312.328125 248.796875 311.585938 248.789062 C 310.84375 248.78125 310.109375 248.84375 309.378906 248.980469 C 308.648438 249.113281 307.9375 249.320312 307.246094 249.597656 C 306.558594 249.871094 305.902344 250.214844 305.277344 250.617188 C 304.65625 251.023438 304.078125 251.484375 303.546875 252.003906 C 303.015625 252.523438 302.539062 253.089844 302.121094 253.703125 C 301.699219 254.3125 301.34375 254.960938 301.050781 255.644531 Z M 167 359.53125 C 146.390625 321.097656 193.226562 253.527344 219.351562 274.910156 C 218.746094 275.730469 218.183594 276.578125 217.664062 277.457031 C 217.144531 278.332031 216.671875 279.234375 216.246094 280.160156 C 215.816406 281.082031 215.433594 282.027344 215.101562 282.988281 C 214.769531 283.953125 214.484375 284.929688 214.25 285.921875 C 214.015625 286.914062 213.832031 287.914062 213.699219 288.925781 C 213.566406 289.9375 213.484375 290.949219 213.453125 291.96875 C 213.421875 292.988281 213.441406 294.007812 213.515625 295.023438 C 213.585938 296.039062 213.707031 297.050781 213.882812 298.054688 C 214.054688 299.058594 214.28125 300.050781 214.554688 301.03125 C 214.828125 302.015625 215.148438 302.980469 215.519531 303.929688 C 215.894531 304.878906 216.3125 305.804688 216.777344 306.714844 C 217.242188 307.621094 217.75 308.5 218.304688 309.355469 C 218.859375 310.210938 219.453125 311.039062 220.089844 311.832031 C 220.730469 312.628906 221.40625 313.390625 222.117188 314.117188 C 222.832031 314.84375 223.582031 315.535156 224.363281 316.183594 C 225.148438 316.835938 225.964844 317.445312 226.808594 318.015625 C 212.425781 375.46875 178.582031 381.125 167 359.53125 Z M 167 359.53125 " fill-opacity="1" fill-rule="nonzero"/><path fill="#ffde59" d="M 355.589844 362.269531 C 339.390625 383.78125 319.84375 398.3125 297.976562 391.992188 C 253.089844 379.347656 281.492188 297.09375 301.289062 255.101562 C 301.609375 254.417969 302 253.769531 302.449219 253.160156 C 302.898438 252.550781 303.40625 251.992188 303.964844 251.480469 C 304.527344 250.96875 305.132812 250.519531 305.78125 250.128906 C 306.429688 249.738281 307.113281 249.414062 307.824219 249.160156 C 308.539062 248.902344 309.269531 248.71875 310.019531 248.605469 C 310.769531 248.492188 311.523438 248.457031 312.28125 248.492188 C 313.039062 248.527344 313.785156 248.636719 314.519531 248.820312 C 315.253906 249.003906 315.964844 249.257812 316.652344 249.578125 C 317.335938 249.902344 317.984375 250.289062 318.59375 250.738281 C 319.203125 251.191406 319.765625 251.695312 320.273438 252.257812 C 320.785156 252.816406 321.234375 253.421875 321.625 254.074219 C 322.015625 254.722656 322.339844 255.402344 322.59375 256.117188 C 322.851562 256.832031 323.035156 257.5625 323.148438 258.3125 C 323.261719 259.0625 323.296875 259.816406 323.261719 260.570312 C 323.226562 261.328125 323.117188 262.074219 322.933594 262.8125 C 322.75 263.546875 322.496094 264.257812 322.175781 264.941406 C 311.976562 286.613281 282.710938 363.726562 304.3125 369.796875 C 337.90625 379.550781 375.25 267.792969 381.070312 255.195312 C 381.378906 254.535156 381.742188 253.914062 382.167969 253.324219 C 382.589844 252.734375 383.066406 252.191406 383.589844 251.691406 C 384.117188 251.191406 384.683594 250.746094 385.296875 250.355469 C 385.90625 249.960938 386.546875 249.628906 387.21875 249.359375 C 387.894531 249.085938 388.585938 248.882812 389.296875 248.742188 C 390.007812 248.601562 390.726562 248.527344 391.453125 248.519531 C 392.175781 248.515625 392.898438 248.578125 393.609375 248.707031 C 394.324219 248.839844 395.019531 249.035156 395.695312 249.296875 C 396.371094 249.558594 397.019531 249.878906 397.636719 250.261719 C 398.25 250.648438 398.824219 251.085938 399.359375 251.574219 C 399.894531 252.066406 400.375 252.605469 400.808594 253.1875 C 401.238281 253.769531 401.613281 254.386719 401.929688 255.039062 C 402.246094 255.695312 402.496094 256.371094 402.683594 257.070312 C 402.875 257.773438 402.996094 258.484375 403.046875 259.207031 C 403.101562 259.929688 403.085938 260.652344 403.003906 261.375 C 402.921875 262.09375 402.773438 262.800781 402.558594 263.492188 C 391.929688 297.28125 377.964844 319.839844 377.964844 350.867188 C 377.964844 364.222656 381.851562 371.152344 388.164062 371.152344 C 404.105469 371.152344 435.53125 326.902344 458.816406 230.359375 C 458.996094 229.625 459.246094 228.914062 459.5625 228.226562 C 459.882812 227.539062 460.265625 226.890625 460.710938 226.277344 C 461.15625 225.664062 461.65625 225.101562 462.214844 224.589844 C 462.773438 224.078125 463.375 223.625 464.019531 223.226562 C 464.667969 222.832031 465.34375 222.503906 466.054688 222.246094 C 466.765625 221.984375 467.496094 221.792969 468.242188 221.675781 C 468.992188 221.558594 469.746094 221.515625 470.5 221.546875 C 471.257812 221.578125 472.003906 221.679688 472.742188 221.859375 C 473.476562 222.035156 474.1875 222.28125 474.875 222.601562 C 475.5625 222.917969 476.214844 223.296875 476.828125 223.742188 C 477.4375 224.191406 478 224.691406 478.515625 225.246094 C 479.03125 225.804688 479.484375 226.402344 479.878906 227.050781 C 480.277344 227.695312 480.605469 228.375 480.867188 229.082031 C 481.128906 229.792969 481.320312 230.523438 481.4375 231.273438 C 481.554688 232.019531 481.601562 232.773438 481.570312 233.527344 C 481.542969 234.285156 481.4375 235.03125 481.261719 235.769531 C 433.742188 432.90625 362.199219 407.699219 355.589844 362.269531 Z M 355.589844 362.269531 " fill-opacity="1" fill-rule="nonzero"/><path fill="#ff5757" d="M 502.765625 391.300781 C 457.421875 371.222656 502.035156 308.9375 506.121094 287.957031 C 488.074219 278.957031 453.363281 260.769531 459.078125 226.46875 C 459.214844 225.734375 459.421875 225.019531 459.695312 224.320312 C 459.972656 223.625 460.3125 222.960938 460.71875 222.332031 C 461.125 221.703125 461.585938 221.117188 462.105469 220.578125 C 462.625 220.035156 463.191406 219.550781 463.804688 219.121094 C 464.417969 218.691406 465.066406 218.324219 465.75 218.023438 C 466.433594 217.71875 467.144531 217.484375 467.875 217.316406 C 468.605469 217.152344 469.34375 217.058594 470.09375 217.035156 C 470.839844 217.015625 471.585938 217.066406 472.324219 217.1875 C 473.0625 217.3125 473.78125 217.503906 474.484375 217.769531 C 475.183594 218.03125 475.855469 218.359375 476.492188 218.753906 C 477.128906 219.148438 477.722656 219.597656 478.273438 220.105469 C 478.820312 220.617188 479.316406 221.171875 479.757812 221.777344 C 480.199219 222.382812 480.578125 223.027344 480.894531 223.707031 C 481.207031 224.382812 481.457031 225.089844 481.636719 225.816406 C 481.8125 226.542969 481.921875 227.28125 481.957031 228.027344 C 481.992188 228.777344 481.957031 229.519531 481.847656 230.261719 C 478.699219 249.167969 503.65625 260.347656 519.492188 268.828125 C 537.105469 277.90625 527.628906 299.289062 518.460938 319.96875 C 511.964844 334.609375 497.503906 363.714844 512.078125 370.179688 C 523.617188 375.222656 542 356.851562 561.300781 321.007812 C 571.320312 301.527344 581.605469 276.710938 581.707031 276.46875 C 582.027344 275.789062 582.40625 275.148438 582.851562 274.546875 C 583.292969 273.941406 583.789062 273.386719 584.339844 272.882812 C 584.890625 272.375 585.484375 271.925781 586.125 271.535156 C 586.761719 271.144531 587.433594 270.816406 588.132812 270.554688 C 588.835938 270.296875 589.554688 270.105469 590.292969 269.984375 C 591.03125 269.863281 591.777344 269.816406 592.523438 269.839844 C 593.273438 269.863281 594.011719 269.957031 594.742188 270.125 C 595.46875 270.292969 596.175781 270.53125 596.859375 270.835938 C 597.542969 271.140625 598.191406 271.507812 598.804688 271.941406 C 599.414062 272.371094 599.980469 272.855469 600.496094 273.398438 C 601.015625 273.9375 601.476562 274.523438 601.878906 275.15625 C 602.28125 275.785156 602.621094 276.449219 602.894531 277.144531 C 603.167969 277.839844 603.375 278.558594 603.507812 279.292969 C 603.644531 280.03125 603.707031 280.773438 603.699219 281.519531 C 603.6875 282.269531 603.605469 283.011719 603.453125 283.742188 C 603.300781 284.476562 603.078125 285.1875 602.785156 285.875 C 602.335938 286.886719 592.148438 311.511719 581.726562 331.765625 C 564.601562 363.570312 535.855469 405.851562 502.765625 391.300781 Z M 502.765625 391.300781 " fill-opacity="1" fill-rule="nonzero"/><path fill="#38b6ff" d="M 574.515625 383.503906 C 573.9375 383.015625 573.414062 382.472656 572.941406 381.878906 C 572.46875 381.285156 572.058594 380.652344 571.710938 379.980469 C 571.363281 379.304688 571.085938 378.605469 570.878906 377.875 C 570.667969 377.148438 570.53125 376.40625 570.46875 375.648438 C 570.40625 374.894531 570.417969 374.140625 570.503906 373.386719 C 570.589844 372.632812 570.746094 371.898438 570.976562 371.175781 C 571.207031 370.453125 571.507812 369.761719 571.875 369.097656 C 572.242188 368.433594 572.671875 367.8125 573.160156 367.234375 C 573.648438 366.65625 574.191406 366.128906 574.785156 365.660156 C 575.378906 365.1875 576.011719 364.777344 576.683594 364.429688 C 577.359375 364.082031 578.058594 363.804688 578.789062 363.59375 C 579.515625 363.386719 580.257812 363.25 581.015625 363.1875 C 581.769531 363.125 582.523438 363.136719 583.277344 363.222656 C 584.03125 363.304688 584.769531 363.464844 585.488281 363.695312 C 586.210938 363.925781 586.90625 364.226562 587.566406 364.59375 C 588.230469 364.960938 588.851562 365.390625 589.429688 365.878906 C 610.667969 383.855469 649.921875 365.820312 612.996094 338.800781 C 531.867188 282.851562 619.203125 214.136719 662.292969 255.738281 C 676.976562 269.917969 682.039062 299.472656 663.925781 299.472656 C 663.167969 299.472656 662.417969 299.398438 661.675781 299.25 C 660.933594 299.101562 660.210938 298.882812 659.507812 298.59375 C 658.808594 298.304688 658.144531 297.949219 657.515625 297.527344 C 656.882812 297.105469 656.300781 296.628906 655.765625 296.09375 C 655.230469 295.554688 654.75 294.972656 654.328125 294.34375 C 653.910156 293.710938 653.554688 293.046875 653.261719 292.347656 C 652.972656 291.648438 652.753906 290.925781 652.605469 290.183594 C 652.457031 289.4375 652.382812 288.6875 652.382812 287.929688 C 652.382812 261.152344 614.8125 258.226562 604.128906 283.226562 C 597.988281 297.625 615.425781 312.433594 626.367188 319.984375 C 687.796875 364.921875 622.003906 423.671875 574.515625 383.503906 Z M 574.515625 383.503906 " fill-opacity="1" fill-rule="nonzero"/><path fill="#ffffff" d="M 805.371094 474.5 C 805.339844 474.15625 805.285156 473.8125 805.246094 473.46875 C 805.15625 472.710938 805.054688 471.953125 804.925781 471.199219 C 804.851562 470.78125 804.769531 470.359375 804.683594 469.9375 C 804.523438 469.144531 804.332031 468.355469 804.121094 467.570312 C 804.042969 467.277344 803.980469 466.984375 803.898438 466.695312 C 803.589844 465.644531 803.234375 464.605469 802.84375 463.574219 C 802.730469 463.273438 802.601562 462.980469 802.480469 462.679688 C 802.144531 461.855469 801.78125 461.039062 801.390625 460.230469 C 801.300781 460.050781 801.238281 459.867188 801.148438 459.6875 C 801.097656 459.585938 801.035156 459.496094 800.984375 459.394531 C 800.484375 458.425781 799.960938 457.464844 799.378906 456.523438 C 799.355469 456.488281 799.328125 456.453125 799.304688 456.414062 C 799.183594 456.214844 799.042969 456.027344 798.917969 455.828125 C 798.421875 455.0625 797.90625 454.316406 797.367188 453.589844 C 797.140625 453.285156 796.910156 452.984375 796.675781 452.6875 C 796.136719 452.003906 795.582031 451.34375 795.007812 450.699219 C 794.832031 450.503906 794.664062 450.296875 794.484375 450.105469 C 793.726562 449.289062 792.933594 448.507812 792.113281 447.757812 C 791.9375 447.597656 791.753906 447.445312 791.578125 447.289062 C 790.875 446.664062 790.152344 446.070312 789.410156 445.5 C 789.21875 445.351562 789.03125 445.203125 788.835938 445.0625 C 786.976562 443.683594 785.011719 442.464844 782.953125 441.417969 C 782.824219 441.355469 782.691406 441.292969 782.5625 441.226562 C 781.628906 440.765625 780.679688 440.339844 779.714844 439.949219 C 779.574219 439.894531 779.433594 439.832031 779.289062 439.777344 C 777.175781 438.949219 774.988281 438.296875 772.746094 437.824219 C 772.449219 437.761719 772.152344 437.710938 771.855469 437.652344 C 771.042969 437.5 770.222656 437.375 769.394531 437.269531 C 769.058594 437.226562 768.726562 437.175781 768.390625 437.144531 C 767.324219 437.035156 766.253906 436.960938 765.175781 436.933594 C 764.894531 436.925781 764.617188 436.941406 764.335938 436.941406 C 763.703125 436.9375 763.070312 436.929688 762.4375 436.957031 C 761.671875 436.988281 685.136719 440.300781 608.777344 445.023438 C 563.660156 447.8125 527.328125 450.550781 500.785156 453.160156 C 451.832031 457.96875 429.671875 461.027344 417.394531 483.046875 C 414.335938 488.53125 411.714844 495.910156 411.699219 504.957031 C 410.308594 505.339844 408.933594 505.761719 407.574219 506.234375 C 402.636719 501.675781 396.792969 498.101562 390.363281 495.910156 C 375.25 490.78125 359.222656 493.703125 346.960938 502.300781 C 340.222656 483.980469 322.832031 471.046875 302.363281 470.644531 C 286.785156 470.347656 273.0625 473.207031 260.898438 475.738281 L 256.203125 476.703125 C 253.757812 477.199219 251.398438 477.902344 249.089844 478.703125 C 242.605469 473.90625 234.875 470.679688 226.417969 469.644531 C 220.636719 468.9375 214.933594 469.289062 209.527344 470.570312 C 201.519531 464.746094 191.648438 461.386719 181.070312 461.386719 C 180.949219 461.386719 180.820312 461.386719 180.695312 461.386719 C 167.726562 461.484375 155.894531 466.613281 147.234375 475.082031 C 145.738281 475.003906 144.230469 474.980469 142.707031 475.042969 L 132.257812 475.472656 C 131.167969 475.480469 130.078125 475.527344 129.003906 475.605469 L 118.164062 476.050781 C 115.671875 476.15625 113.214844 476.519531 110.785156 477.007812 C 106.671875 476.125 102.398438 475.738281 98.027344 476.019531 C 85.625 476.789062 74.84375 479.914062 66.179688 482.425781 L 64.839844 482.816406 C 62.28125 483.554688 60.128906 484.113281 58.160156 484.546875 L 57.972656 484.566406 C 57.386719 484.535156 56.808594 484.515625 56.226562 484.503906 C 45.992188 484.179688 36.648438 486.679688 28.363281 491.992188 C 17.238281 499.128906 9.492188 510.570312 7.097656 523.410156 C 4.605469 536.859375 7.921875 550.863281 16.203125 561.828125 C 19.703125 566.472656 24.003906 570.375 28.828125 573.386719 L 31.148438 610.121094 C 31.964844 623.035156 38.082031 635.304688 47.9375 643.789062 C 49.015625 644.722656 50.132812 645.597656 51.273438 646.417969 C 45.863281 655.257812 42.945312 665.519531 43.242188 676.460938 C 43.527344 686.71875 46.554688 695.449219 50.375 702.523438 C 50.082031 703.570312 49.820312 704.636719 49.589844 705.714844 C 45.644531 724.347656 49.933594 744.199219 61.675781 761.605469 C 73.148438 778.609375 90.410156 790.257812 109.035156 793.558594 C 112.542969 794.183594 116.089844 794.484375 119.636719 794.484375 C 130.953125 794.484375 142.210938 791.375 152.109375 785.757812 C 159.328125 789.980469 167.46875 792.207031 175.875 792.207031 C 177.25 792.207031 178.628906 792.148438 180.011719 792.03125 C 192.023438 790.992188 202.675781 785.535156 210.542969 777.46875 C 217.339844 782.390625 224.933594 785.898438 233.027344 787.738281 C 237.59375 788.78125 242.203125 789.289062 246.769531 789.289062 C 256.316406 789.289062 265.683594 787.066406 274.117188 782.871094 C 279.585938 785.3125 285.597656 786.8125 291.972656 787.128906 C 293.332031 787.199219 294.6875 787.234375 296.054688 787.234375 C 310.410156 787.234375 324.9375 783.476562 337.871094 776.457031 C 346.609375 781.78125 356.417969 784.445312 366.285156 784.445312 C 380.957031 784.445312 395.738281 778.617188 407.246094 767.128906 C 413.714844 760.679688 417.578125 753.808594 419.664062 750.089844 C 421.703125 746.453125 423.691406 742.578125 425.582031 738.546875 C 432.242188 724.3125 436.824219 710.277344 441.316406 695.9375 L 441.648438 694.871094 C 444.5625 685.59375 448.96875 671.570312 446.863281 654.976562 C 446.859375 654.960938 446.859375 654.949219 446.855469 654.9375 C 446.660156 653.386719 446.382812 651.871094 446.050781 650.375 C 456.511719 648.136719 466.453125 643.386719 475.015625 636.289062 C 481.503906 630.917969 486.9375 624.371094 491.148438 617.132812 C 491.230469 617.976562 491.316406 618.816406 491.402344 619.660156 C 492.578125 630.894531 493.734375 639.691406 494.9375 646.550781 C 499.710938 673.761719 512.816406 688.835938 533.851562 691.464844 C 534.195312 691.507812 534.535156 691.5625 534.882812 691.597656 C 535.117188 691.621094 535.339844 691.667969 535.578125 691.6875 C 537.117188 691.828125 538.613281 691.894531 540.074219 691.894531 C 542.839844 691.894531 545.453125 691.601562 547.980469 691.117188 L 579.816406 687.355469 C 608.355469 714.273438 623.996094 718.699219 635.832031 718.695312 C 637.214844 718.695312 638.550781 718.636719 639.847656 718.542969 C 663.941406 716.84375 678.609375 697.800781 698.242188 668.941406 C 709.960938 651.714844 724.847656 628.019531 742.488281 598.519531 C 772.148438 548.914062 800.054688 498.804688 800.335938 498.300781 C 800.71875 497.613281 801.066406 496.914062 801.40625 496.210938 C 801.488281 496.042969 801.578125 495.878906 801.65625 495.710938 C 802.105469 494.75 802.503906 493.773438 802.875 492.789062 C 802.992188 492.484375 803.097656 492.171875 803.203125 491.863281 C 803.476562 491.082031 803.726562 490.292969 803.953125 489.5 C 804.039062 489.199219 804.128906 488.898438 804.207031 488.589844 C 804.484375 487.523438 804.730469 486.449219 804.921875 485.371094 C 804.933594 485.308594 804.9375 485.246094 804.949219 485.183594 C 805.121094 484.167969 805.246094 483.148438 805.34375 482.128906 C 805.378906 481.757812 805.402344 481.390625 805.429688 481.019531 C 805.480469 480.265625 805.507812 479.507812 805.519531 478.75 C 805.523438 478.371094 805.535156 477.992188 805.53125 477.609375 C 805.515625 476.574219 805.464844 475.535156 805.371094 474.5 Z M 805.371094 474.5 " fill-opacity="1" fill-rule="nonzero"/><g clip-path="url(#1931709881)"><path fill="#ede6e2" d="M 119.636719 798.613281 C 115.8125 798.613281 112.003906 798.28125 108.308594 797.625 C 88.59375 794.128906 70.34375 781.84375 58.25 763.914062 C 45.875 745.574219 41.367188 724.601562 45.546875 704.859375 C 45.679688 704.242188 45.820312 703.628906 45.96875 703.019531 C 41.667969 694.570312 39.363281 685.683594 39.113281 676.570312 C 38.832031 666.414062 41.175781 656.433594 45.914062 647.488281 C 45.683594 647.296875 45.457031 647.109375 45.234375 646.917969 C 34.546875 637.714844 27.910156 624.394531 27.023438 610.382812 L 24.832031 575.707031 C 20.257812 572.582031 16.253906 568.753906 12.902344 564.316406 C 3.925781 552.425781 0.328125 537.242188 3.035156 522.65625 C 5.632812 508.707031 14.050781 496.261719 26.128906 488.515625 C 35.105469 482.761719 45.289062 480 56.359375 480.375 C 56.78125 480.382812 57.238281 480.394531 57.703125 480.414062 C 59.464844 480.015625 61.382812 479.515625 63.691406 478.84375 L 65.027344 478.457031 C 73.886719 475.890625 84.902344 472.695312 97.769531 471.894531 C 102.039062 471.621094 106.414062 471.925781 110.808594 472.792969 C 113.417969 472.300781 115.773438 472.015625 117.992188 471.921875 L 128.835938 471.476562 C 129.859375 471.402344 131.042969 471.347656 132.230469 471.339844 L 142.539062 470.914062 C 143.550781 470.875 144.582031 470.867188 145.65625 470.886719 C 155.195312 462.183594 167.554688 457.355469 180.664062 457.253906 L 181.070312 457.253906 C 191.671875 457.253906 201.773438 460.324219 210.414062 466.148438 C 215.84375 465.074219 221.386719 464.867188 226.921875 465.542969 C 235.085938 466.546875 242.941406 469.5 249.769531 474.125 C 251.765625 473.496094 253.585938 473.019531 255.382812 472.65625 L 260.066406 471.691406 C 272.4375 469.117188 286.460938 466.230469 302.441406 466.511719 C 322.613281 466.910156 340.332031 478.402344 348.871094 496.210938 C 361.910156 488.8125 377.566406 487.203125 391.691406 492 C 397.507812 493.984375 402.886719 496.96875 407.730469 500.90625 C 408.300781 493.898438 410.332031 487.234375 413.785156 481.035156 C 427.070312 457.199219 449.933594 454.003906 500.382812 449.046875 C 526.96875 446.433594 563.351562 443.691406 608.523438 440.898438 C 685.464844 436.140625 761.53125 432.859375 762.261719 432.828125 C 762.855469 432.804688 763.4375 432.804688 764.027344 432.808594 L 764.355469 432.8125 L 765.257812 432.804688 C 766.457031 432.832031 767.632812 432.917969 768.804688 433.035156 C 769.074219 433.058594 769.359375 433.097656 769.644531 433.136719 L 769.921875 433.171875 C 770.8125 433.28125 771.710938 433.425781 772.605469 433.589844 L 773.597656 433.78125 C 776.046875 434.296875 778.46875 435.023438 780.792969 435.929688 L 781.210938 436.097656 C 782.328125 436.550781 783.371094 437.015625 784.398438 437.527344 L 784.863281 437.757812 C 787.078125 438.882812 789.253906 440.230469 791.296875 441.742188 L 791.941406 442.234375 C 792.746094 442.851562 793.539062 443.507812 794.316406 444.195312 L 794.890625 444.699219 C 795.808594 445.539062 796.683594 446.398438 797.519531 447.300781 C 797.648438 447.4375 797.796875 447.609375 797.945312 447.78125 C 798.71875 448.652344 799.324219 449.378906 799.917969 450.121094 C 800.1875 450.464844 800.445312 450.804688 800.695312 451.140625 C 801.277344 451.929688 801.847656 452.746094 802.386719 453.589844 C 802.605469 453.910156 802.722656 454.078125 802.828125 454.257812 C 803.535156 455.386719 804.113281 456.445312 804.660156 457.511719 L 804.824219 457.796875 C 804.9375 458.027344 805.011719 458.199219 805.082031 458.367188 C 805.539062 459.320312 805.9375 460.21875 806.3125 461.125 C 806.503906 461.59375 806.613281 461.855469 806.710938 462.125 C 807.136719 463.242188 807.527344 464.382812 807.867188 465.539062 L 808.113281 466.496094 C 808.347656 467.371094 808.554688 468.234375 808.730469 469.105469 C 808.828125 469.5625 808.914062 470.019531 808.992188 470.476562 C 809.140625 471.332031 809.257812 472.167969 809.351562 473.003906 L 809.390625 473.304688 C 809.429688 473.585938 809.464844 473.867188 809.488281 474.144531 C 809.589844 475.277344 809.644531 476.410156 809.664062 477.546875 C 809.667969 477.867188 809.660156 478.179688 809.65625 478.496094 L 809.648438 478.808594 C 809.640625 479.632812 809.605469 480.464844 809.554688 481.300781 C 809.527344 481.699219 809.5 482.109375 809.457031 482.519531 C 809.351562 483.644531 809.210938 484.765625 809.019531 485.886719 C 808.785156 487.277344 808.511719 488.453125 808.207031 489.628906 L 807.996094 490.382812 C 807.683594 491.496094 807.40625 492.367188 807.105469 493.230469 L 806.742188 494.246094 C 806.335938 495.320312 805.894531 496.402344 805.398438 497.460938 L 805.195312 497.871094 C 804.753906 498.785156 804.367188 499.550781 803.949219 500.304688 C 800.949219 505.6875 774.304688 553.359375 746.039062 600.640625 C 728.347656 630.222656 713.417969 653.980469 701.660156 671.265625 C 681.347656 701.121094 666.089844 720.832031 640.136719 722.664062 C 638.746094 722.765625 637.316406 722.824219 635.832031 722.824219 C 635.828125 722.824219 635.824219 722.824219 635.816406 722.824219 C 623.929688 722.824219 607.820312 719.085938 578.390625 691.683594 L 548.609375 695.203125 C 544.046875 696.066406 539.871094 696.21875 535.214844 695.804688 C 535 695.785156 534.800781 695.757812 534.597656 695.726562 C 534.171875 695.675781 533.882812 695.636719 533.589844 695.597656 L 533.304688 695.558594 C 510.273438 692.683594 495.984375 676.433594 490.867188 647.261719 C 489.976562 642.183594 489.109375 636.054688 488.246094 628.679688 C 485.070312 632.648438 481.53125 636.257812 477.65625 639.46875 C 469.796875 645.984375 460.585938 650.777344 450.824219 653.460938 C 450.871094 653.765625 450.910156 654.074219 450.953125 654.382812 C 450.953125 654.40625 450.960938 654.429688 450.964844 654.453125 C 453.183594 671.945312 448.617188 686.484375 445.59375 696.105469 L 445.261719 697.167969 C 440.726562 711.644531 436.09375 725.832031 429.324219 740.296875 C 427.386719 744.425781 425.351562 748.402344 423.269531 752.109375 C 421.09375 755.980469 417.042969 763.195312 410.167969 770.054688 C 398.199219 781.996094 382.617188 788.574219 366.285156 788.574219 C 356.304688 788.574219 346.496094 786.023438 337.769531 781.179688 C 323.421875 788.515625 307.433594 792.023438 291.769531 791.253906 C 285.695312 790.953125 279.800781 789.65625 274.222656 787.402344 C 261.207031 793.394531 246.15625 794.957031 232.105469 791.765625 C 224.636719 790.066406 217.542969 787.046875 210.980469 782.777344 C 202.449219 790.453125 191.707031 795.164062 180.367188 796.144531 C 170.527344 796.988281 160.742188 795.007812 152.097656 790.46875 C 141.949219 795.804688 130.777344 798.613281 119.636719 798.613281 Z M 54.527344 488.605469 C 45.726562 488.605469 37.699219 490.910156 30.597656 495.46875 C 20.429688 501.992188 13.34375 512.449219 11.160156 524.164062 C 8.878906 536.472656 11.917969 549.296875 19.5 559.339844 C 22.671875 563.542969 26.546875 567.089844 31.019531 569.882812 C 32.148438 570.589844 32.871094 571.796875 32.953125 573.125 L 35.273438 609.859375 C 36.019531 621.667969 41.617188 632.894531 50.632812 640.660156 C 51.597656 641.492188 52.625 642.300781 53.6875 643.066406 C 55.445312 644.328125 55.929688 646.730469 54.800781 648.574219 C 49.675781 656.949219 47.105469 666.550781 47.375 676.347656 C 47.605469 684.679688 49.839844 692.828125 54.011719 700.5625 C 54.519531 701.503906 54.640625 702.605469 54.351562 703.636719 C 54.085938 704.601562 53.84375 705.578125 53.636719 706.570312 C 49.917969 724.101562 53.992188 742.828125 65.101562 759.296875 C 75.953125 775.378906 92.226562 786.386719 109.753906 789.492188 C 123.0625 791.847656 137.621094 789.226562 150.070312 782.164062 C 151.351562 781.4375 152.925781 781.449219 154.195312 782.191406 C 161.867188 786.679688 170.742188 788.664062 179.660156 787.914062 C 190.167969 787.007812 200.085938 782.269531 207.582031 774.585938 C 209.015625 773.113281 211.300781 772.917969 212.96875 774.121094 C 219.410156 778.785156 226.46875 782.007812 233.945312 783.710938 C 246.785156 786.636719 260.574219 784.996094 272.277344 779.171875 C 273.386719 778.621094 274.679688 778.589844 275.804688 779.101562 C 280.96875 781.40625 286.480469 782.71875 292.179688 783.003906 C 307.097656 783.742188 322.34375 780.183594 335.898438 772.824219 C 337.1875 772.125 338.757812 772.164062 340.023438 772.925781 C 347.949219 777.761719 357.03125 780.3125 366.285156 780.3125 C 380.410156 780.3125 393.921875 774.59375 404.328125 764.207031 C 410.394531 758.15625 414.082031 751.589844 416.058594 748.066406 C 418.046875 744.535156 419.988281 740.738281 421.839844 736.792969 C 428.390625 722.796875 432.925781 708.894531 437.371094 694.699219 L 437.707031 693.636719 C 440.511719 684.703125 444.75 671.210938 442.765625 655.527344 C 442.765625 655.507812 442.761719 655.484375 442.757812 655.464844 C 442.582031 654.101562 442.339844 652.726562 442.015625 651.269531 C 441.78125 650.191406 441.980469 649.066406 442.574219 648.144531 C 443.171875 647.214844 444.109375 646.566406 445.1875 646.335938 C 455.097656 644.214844 464.496094 639.640625 472.378906 633.109375 C 478.394531 628.128906 483.503906 622.054688 487.574219 615.054688 C 488.472656 613.511719 490.253906 612.722656 492.019531 613.09375 C 493.765625 613.472656 495.074219 614.933594 495.257812 616.710938 L 495.515625 619.226562 C 496.683594 630.386719 497.824219 639.089844 499.007812 645.839844 C 503.488281 671.371094 515.050781 684.953125 534.363281 687.363281 L 535.816406 687.554688 C 540.101562 687.957031 543.332031 687.800781 547.203125 687.0625 C 547.296875 687.042969 547.394531 687.027344 547.496094 687.015625 L 579.332031 683.253906 C 580.542969 683.113281 581.761719 683.511719 582.652344 684.351562 C 610.875 710.96875 625.367188 714.5625 635.820312 714.5625 C 635.824219 714.5625 635.824219 714.5625 635.832031 714.5625 C 637.117188 714.5625 638.355469 714.507812 639.558594 714.425781 C 661.789062 712.855469 675.875 694.476562 694.824219 666.617188 C 706.492188 649.46875 721.335938 625.84375 738.945312 596.398438 C 767.148438 549.226562 793.734375 501.652344 796.671875 496.382812 C 797.066406 495.675781 797.378906 495.046875 797.691406 494.40625 C 797.699219 494.386719 797.8125 494.15625 797.824219 494.136719 C 798.3125 493.097656 798.675781 492.222656 799.003906 491.34375 L 799.238281 490.6875 C 799.550781 489.796875 799.773438 489.09375 799.972656 488.382812 L 800.199219 487.570312 C 800.457031 486.59375 800.679688 485.625 800.851562 484.652344 C 801.03125 483.574219 801.144531 482.65625 801.230469 481.738281 C 801.261719 481.410156 801.28125 481.082031 801.304688 480.75 C 801.351562 480.0625 801.375 479.386719 801.382812 478.707031 L 801.398438 477.667969 C 801.382812 476.738281 801.339844 475.808594 801.253906 474.875 C 801.253906 474.871094 801.253906 474.863281 801.253906 474.855469 L 801.140625 473.949219 C 801.0625 473.253906 800.96875 472.574219 800.851562 471.902344 C 800.785156 471.539062 800.714844 471.15625 800.636719 470.769531 C 800.488281 470.054688 800.320312 469.34375 800.128906 468.628906 L 799.925781 467.835938 C 799.652344 466.902344 799.328125 465.964844 798.980469 465.039062 L 798.753906 464.488281 C 798.351562 463.492188 798.019531 462.757812 797.667969 462.027344 L 797.308594 461.285156 C 796.855469 460.402344 796.382812 459.535156 795.859375 458.691406 L 795.449219 458.078125 C 795 457.378906 794.53125 456.707031 794.046875 456.050781 C 793.839844 455.765625 793.632812 455.5 793.421875 455.234375 C 792.949219 454.632812 792.449219 454.035156 791.929688 453.457031 L 791.480469 452.941406 C 790.769531 452.175781 790.054688 451.472656 789.320312 450.800781 L 789.042969 450.558594 C 788.207031 449.824219 787.558594 449.285156 786.890625 448.773438 L 786.363281 448.371094 C 784.703125 447.140625 782.921875 446.039062 781.078125 445.101562 L 782.5625 441.230469 L 780.726562 444.929688 C 779.886719 444.515625 779.035156 444.132812 778.167969 443.78125 L 777.769531 443.617188 C 775.882812 442.878906 773.902344 442.292969 771.890625 441.867188 L 771.324219 441.757812 C 770.371094 441.578125 769.632812 441.464844 768.886719 441.367188 L 767.996094 441.253906 C 767.015625 441.15625 766.050781 441.085938 765.082031 441.066406 L 764.335938 441.074219 L 763.976562 441.070312 C 763.507812 441.066406 763.066406 441.058594 762.609375 441.082031 C 761.878906 441.113281 685.894531 444.390625 609.035156 449.144531 C 563.960938 451.933594 527.675781 454.667969 501.191406 457.269531 C 453.730469 461.929688 432.273438 464.84375 421.007812 485.058594 C 417.585938 491.195312 415.84375 497.894531 415.832031 504.964844 C 415.828125 506.820312 414.585938 508.449219 412.796875 508.941406 C 411.492188 509.296875 410.203125 509.695312 408.929688 510.136719 C 407.488281 510.636719 405.890625 510.304688 404.773438 509.265625 C 400.121094 504.972656 394.824219 501.796875 389.027344 499.820312 C 375.816406 495.339844 360.96875 497.523438 349.335938 505.679688 C 348.285156 506.417969 346.949219 506.628906 345.726562 506.242188 C 344.503906 505.859375 343.527344 504.929688 343.082031 503.726562 C 336.746094 486.503906 320.730469 475.136719 302.28125 474.773438 C 287.175781 474.492188 273.695312 477.296875 261.78125 479.773438 L 257.035156 480.75 C 255.007812 481.160156 252.917969 481.75 250.441406 482.605469 C 249.148438 483.054688 247.722656 482.835938 246.628906 482.023438 C 240.550781 477.523438 233.386719 474.664062 225.914062 473.746094 C 220.714844 473.109375 215.527344 473.394531 210.480469 474.589844 C 209.300781 474.859375 208.066406 474.621094 207.09375 473.910156 C 199.546875 468.417969 190.546875 465.515625 181.070312 465.515625 L 180.695312 465.515625 C 169.15625 465.605469 158.289062 470.050781 150.125 478.03125 C 149.292969 478.84375 148.167969 479.238281 147.019531 479.203125 C 145.542969 479.128906 144.1875 479.117188 142.875 479.171875 L 132.429688 479.601562 C 131.292969 479.609375 130.296875 479.652344 129.3125 479.726562 L 118.335938 480.179688 C 116.324219 480.261719 114.121094 480.550781 111.601562 481.058594 C 111.046875 481.171875 110.472656 481.167969 109.917969 481.046875 C 105.984375 480.203125 102.078125 479.894531 98.289062 480.140625 C 86.328125 480.882812 75.796875 483.933594 67.332031 486.390625 L 65.996094 486.78125 C 63.316406 487.554688 61.109375 488.125 59.046875 488.578125 C 58.890625 488.613281 58.734375 488.640625 58.574219 488.65625 C 58.355469 488.675781 57.941406 488.6875 57.746094 488.691406 C 57.207031 488.660156 56.679688 488.640625 56.152344 488.632812 C 55.605469 488.613281 55.066406 488.605469 54.527344 488.605469 Z M 54.527344 488.605469 " fill-opacity="1" fill-rule="nonzero"/></g><path fill="#39bca7" d="M 101.148438 530.816406 C 100.03125 530.886719 98.921875 530.984375 97.8125 531.121094 C 97.351562 531.179688 96.890625 531.246094 96.429688 531.3125 C 96.003906 531.378906 95.714844 531.402344 95.722656 531.394531 C 93.894531 531.660156 92.042969 532.210938 90.269531 532.664062 C 87.304688 533.425781 84.375 534.300781 81.4375 535.15625 C 82.949219 559.09375 84.460938 583.03125 85.976562 606.96875 C 86.21875 610.769531 83.070312 613.726562 79.46875 614.035156 C 75.75 614.355469 72.621094 611.070312 72.398438 607.527344 C 70.941406 584.503906 69.484375 561.476562 68.03125 538.453125 C 67.328125 538.582031 66.625 538.707031 65.917969 538.820312 C 61.519531 539.523438 57.246094 539.515625 52.824219 539.089844 C 49.039062 538.730469 47.140625 534.160156 47.738281 530.9375 C 48.039062 529.304688 49.3125 527.636719 50.6875 526.753906 C 52.371094 525.675781 53.988281 525.675781 55.894531 525.855469 C 54.222656 525.695312 55.917969 525.832031 56.296875 525.847656 C 56.847656 525.871094 57.402344 525.882812 57.953125 525.882812 C 58.871094 525.878906 59.789062 525.847656 60.707031 525.785156 C 61.621094 525.726562 62.535156 525.636719 63.445312 525.523438 C 63.996094 525.453125 64.539062 525.371094 65.085938 525.289062 C 65.15625 525.28125 65.214844 525.273438 65.265625 525.265625 C 69 524.507812 72.671875 523.550781 76.335938 522.492188 C 84.285156 520.195312 92.277344 517.761719 100.589844 517.246094 C 104.390625 517.007812 107.347656 520.148438 107.65625 523.753906 C 107.976562 527.464844 104.691406 530.597656 101.148438 530.816406 Z M 101.148438 530.816406 " fill-opacity="1" fill-rule="nonzero"/><path fill="#fcb4c4" d="M 153.226562 605.949219 C 146.414062 607.847656 139.605469 609.746094 132.792969 611.644531 C 129.125 612.667969 125.566406 610.808594 124.246094 607.25 C 123.007812 603.898438 125.21875 599.664062 128.644531 598.707031 C 130.300781 598.246094 131.957031 597.785156 133.613281 597.320312 C 130.285156 575.199219 128.066406 552.949219 126.164062 530.660156 C 124.257812 530.742188 122.351562 530.820312 120.445312 530.898438 C 116.640625 531.054688 113.691406 528.0625 113.375 524.390625 C 113.0625 520.734375 116.332031 517.472656 119.886719 517.324219 C 123.847656 517.160156 127.808594 517 131.773438 516.835938 C 131.882812 516.820312 131.996094 516.8125 132.105469 516.800781 C 132.382812 516.777344 132.660156 516.777344 132.933594 516.789062 C 136.761719 516.632812 140.589844 516.472656 144.417969 516.316406 C 148.226562 516.160156 151.171875 519.152344 151.488281 522.824219 C 151.804688 526.480469 148.53125 529.742188 144.976562 529.886719 C 143.234375 529.960938 141.488281 530.03125 139.742188 530.105469 C 141.554688 551.347656 143.660156 572.5625 146.734375 593.664062 C 147.515625 593.445312 148.296875 593.226562 149.078125 593.011719 C 152.75 591.988281 156.308594 593.847656 157.628906 597.40625 C 158.867188 600.757812 156.65625 604.992188 153.226562 605.949219 Z M 153.226562 605.949219 " fill-opacity="1" fill-rule="nonzero"/><path fill="#febe5b" d="M 242.972656 589.820312 C 239.71875 592 235.761719 590.378906 233.636719 587.546875 C 224.851562 575.851562 220.058594 562.316406 217.300781 548.238281 C 215.019531 555.5 212.851562 562.792969 210.808594 570.121094 C 209.242188 575.730469 201.527344 577.003906 198.417969 571.96875 C 192.175781 561.84375 187.175781 551.082031 183.082031 539.964844 C 182.855469 542.699219 182.675781 545.433594 182.550781 548.175781 C 182.273438 554.183594 182.238281 560.207031 182.4375 566.21875 C 182.636719 572.246094 183.070312 578.269531 183.75 584.265625 C 183.933594 585.882812 184.132812 587.503906 184.351562 589.117188 C 184.425781 589.671875 184.5 590.230469 184.582031 590.78125 C 184.640625 591.164062 184.753906 591.917969 184.792969 592.15625 C 185.269531 595.191406 185.808594 598.21875 186.402344 601.230469 C 187.140625 604.976562 185.46875 608.378906 181.730469 609.625 C 178.445312 610.722656 174.023438 608.453125 173.332031 604.957031 C 171.882812 597.585938 170.753906 590.140625 169.96875 582.667969 C 167.339844 557.664062 168.875 532.1875 174.414062 507.664062 C 175.882812 501.179688 185.949219 500.953125 187.535156 507.492188 C 190.042969 517.847656 193.007812 528.105469 196.804688 538.066406 C 197.742188 540.519531 198.730469 542.953125 199.761719 545.367188 C 199.789062 545.425781 199.8125 545.480469 199.832031 545.527344 C 199.867188 545.609375 199.910156 545.707031 199.96875 545.828125 C 200.25 546.449219 200.523438 547.066406 200.808594 547.683594 C 201.292969 548.734375 201.789062 549.777344 202.292969 550.820312 C 205.890625 538.996094 209.785156 527.265625 213.996094 515.644531 C 215.164062 512.417969 217.835938 510.210938 221.390625 510.648438 C 224.839844 511.066406 227.171875 513.871094 227.375 517.277344 C 227.734375 523.46875 228.207031 529.65625 228.964844 535.8125 C 229.0625 536.582031 229.160156 537.347656 229.261719 538.113281 C 229.296875 538.367188 229.335938 538.613281 229.367188 538.867188 C 229.378906 538.945312 229.394531 539.042969 229.410156 539.15625 C 229.621094 540.46875 229.828125 541.777344 230.0625 543.082031 C 230.570312 545.921875 231.164062 548.742188 231.859375 551.539062 C 232.542969 554.277344 233.328125 556.988281 234.234375 559.660156 C 234.640625 560.855469 235.066406 562.039062 235.523438 563.21875 C 235.78125 563.886719 236.050781 564.550781 236.324219 565.214844 C 236.398438 565.402344 236.480469 565.585938 236.558594 565.769531 C 236.585938 565.839844 236.625 565.917969 236.667969 566.015625 C 239.078125 571.121094 241.851562 575.960938 245.246094 580.480469 C 247.53125 583.523438 245.789062 587.933594 242.972656 589.820312 Z M 242.972656 589.820312 " fill-opacity="1" fill-rule="nonzero"/><path fill="#f06063" d="M 311.554688 590.140625 C 307.882812 594.28125 302.648438 596.796875 297.714844 599.070312 C 293.152344 601.175781 288.402344 602.921875 283.578125 604.339844 C 281.355469 604.996094 279.085938 605.601562 276.78125 605.882812 C 272.472656 606.40625 268.226562 604.796875 265.640625 601.261719 C 263.800781 598.753906 263 595.3125 262.191406 592.351562 C 261.367188 589.34375 260.71875 586.296875 260.171875 583.226562 C 257.949219 570.746094 257.515625 558.128906 256.671875 545.507812 C 256.328125 540.40625 255.652344 535.367188 255.15625 530.289062 C 254.90625 527.738281 255.234375 524.992188 256.453125 522.707031 C 258.105469 519.617188 261.054688 517.867188 264.394531 517.191406 C 276.59375 514.722656 289.019531 511.695312 301.542969 511.941406 C 305.359375 512.015625 308.28125 514.59375 308.613281 518.449219 C 308.914062 521.953125 305.664062 525.582031 302.101562 525.515625 C 295.886719 525.394531 289.6875 526.15625 283.566406 527.179688 C 283.273438 527.230469 282.976562 527.277344 282.683594 527.324219 C 282.640625 527.335938 282.59375 527.34375 282.527344 527.355469 C 281.679688 527.519531 280.832031 527.667969 279.984375 527.828125 C 278.496094 528.113281 277.011719 528.40625 275.527344 528.707031 C 274.074219 529 272.628906 529.292969 271.179688 529.589844 C 270.390625 529.753906 269.597656 529.917969 268.804688 530.078125 C 268.804688 530.078125 268.796875 530.078125 268.796875 530.078125 C 268.917969 531.179688 269.082031 532.269531 269.21875 533.371094 C 269.863281 538.691406 270.210938 544.042969 270.527344 549.390625 C 270.609375 550.816406 270.695312 552.238281 270.777344 553.664062 C 277.742188 552.371094 284.710938 551.082031 291.679688 549.789062 C 295.4375 549.09375 298.816406 550.375 300.226562 554.183594 C 301.386719 557.324219 299.335938 562.078125 295.828125 562.730469 C 288.085938 564.164062 280.34375 565.597656 272.605469 567.03125 C 272.300781 567.085938 272 567.128906 271.703125 567.15625 C 271.914062 569.570312 272.160156 571.980469 272.464844 574.386719 C 272.644531 575.800781 272.839844 577.214844 273.0625 578.628906 C 273.121094 579.003906 273.183594 579.375 273.242188 579.753906 C 273.246094 579.773438 273.253906 579.808594 273.261719 579.855469 C 273.300781 580.070312 273.355469 580.378906 273.371094 580.480469 C 273.425781 580.757812 273.480469 581.039062 273.535156 581.316406 C 274.074219 584.089844 274.726562 586.84375 275.519531 589.558594 C 275.777344 590.453125 276.050781 591.347656 276.34375 592.234375 C 276.878906 592.101562 277.417969 591.96875 277.949219 591.824219 C 279.675781 591.351562 281.386719 590.820312 283.085938 590.253906 C 285.113281 589.574219 287.121094 588.839844 289.105469 588.046875 C 290.132812 587.636719 291.152344 587.210938 292.164062 586.765625 C 292.386719 586.667969 293.378906 586.070312 293.554688 586.132812 C 293.613281 586.101562 293.671875 586.074219 293.730469 586.042969 C 295.484375 585.179688 297.207031 584.242188 298.84375 583.171875 C 299.507812 582.734375 300.125 582.234375 300.765625 581.769531 C 300.792969 581.738281 300.820312 581.710938 300.855469 581.679688 C 301.097656 581.441406 301.328125 581.195312 301.554688 580.9375 C 304.074219 578.097656 308.390625 578.207031 311.15625 580.542969 C 313.996094 582.945312 313.910156 587.480469 311.554688 590.140625 Z M 268.667969 528.53125 C 268.664062 528.539062 268.664062 528.542969 268.664062 528.546875 C 268.664062 528.5625 268.667969 528.578125 268.667969 528.589844 C 268.804688 528.285156 268.882812 528.089844 268.667969 528.53125 Z M 293.152344 586.328125 C 293.277344 586.265625 293.40625 586.203125 293.53125 586.144531 C 293.3125 586.21875 292.109375 586.839844 293.152344 586.328125 Z M 301.125 581.511719 C 301.0625 581.550781 301.003906 581.59375 300.949219 581.636719 C 301.007812 581.59375 301.066406 581.550781 301.125 581.511719 Z M 301.125 581.511719 " fill-opacity="1" fill-rule="nonzero"/><path fill="#7fbae6" d="M 403.140625 603.433594 C 397.796875 609.308594 391.148438 613.917969 383.914062 616.761719 C 381.808594 617.589844 379.320312 618.4375 376.484375 618.019531 C 375.851562 617.921875 375.222656 617.773438 374.617188 617.566406 C 372.609375 616.882812 370.785156 615.605469 369.203125 613.769531 C 366.972656 611.1875 365.308594 607.8125 364.113281 603.445312 C 362.085938 596.03125 361.589844 588.148438 361.378906 582.109375 C 361.351562 581.335938 361.332031 580.542969 361.324219 579.734375 C 360.800781 579.734375 360.28125 579.722656 359.769531 579.695312 C 359.0625 579.660156 358.378906 579.53125 357.746094 579.320312 C 354.523438 578.222656 352.679688 574.828125 353.363281 571.25 C 354.050781 567.65625 356.941406 565.367188 360.554688 565.546875 C 361.113281 565.574219 361.589844 565.589844 362.035156 565.585938 C 363.039062 556.664062 365.074219 547.875 368.101562 539.421875 C 369.410156 535.761719 373.4375 533.792969 377.074219 535.027344 C 378.84375 535.628906 380.335938 536.964844 381.171875 538.695312 C 382 540.414062 382.113281 542.316406 381.492188 544.054688 C 379.25 550.324219 377.636719 556.582031 376.699219 562.664062 C 380.234375 561.921875 384.097656 561.390625 388.085938 561.710938 C 388.675781 561.761719 389.261719 561.882812 389.824219 562.074219 C 392.875 563.109375 394.878906 566.039062 394.6875 569.199219 C 394.578125 571.066406 393.675781 572.867188 392.214844 574.136719 C 390.773438 575.390625 388.972656 575.996094 387.140625 575.847656 C 384.847656 575.664062 383.765625 575.757812 381.472656 576.15625 C 379.46875 576.503906 377.511719 576.988281 375.453125 577.503906 C 375.34375 584.882812 376.039062 591.988281 377.523438 598.644531 C 377.828125 600.003906 378.179688 601.25 378.398438 601.75 C 378.746094 602.539062 379 603.070312 379.195312 603.429688 C 379.671875 603.214844 380.265625 602.933594 380.980469 602.589844 C 385.691406 600.300781 389.644531 597.304688 393.417969 593.152344 C 395.082031 591.320312 397.875 590.71875 400.527344 591.617188 C 401.773438 592.039062 402.847656 592.742188 403.632812 593.652344 C 406.046875 596.4375 405.84375 600.457031 403.140625 603.433594 Z M 403.140625 603.433594 " fill-opacity="1" fill-rule="nonzero"/><path fill="#39bca7" d="M 458.542969 588.898438 C 457.027344 594.917969 453.515625 600.449219 448.648438 604.480469 C 443.511719 608.734375 437.296875 610.882812 431.148438 610.527344 C 430.492188 610.488281 429.832031 610.421875 429.179688 610.332031 C 427.816406 610.132812 426.53125 609.601562 425.480469 608.808594 C 425.171875 608.726562 424.875 608.625 424.589844 608.5 C 415.09375 604.292969 408.980469 594.851562 407.382812 581.914062 C 406.886719 577.894531 406.703125 573.570312 406.839844 569.0625 C 407.023438 563.027344 407.539062 556.714844 411.617188 551.746094 C 415.972656 546.433594 423.042969 543.519531 430.53125 543.949219 C 430.632812 543.957031 430.734375 543.960938 430.832031 543.96875 C 437.539062 544.433594 444.027344 547.4375 449.097656 552.421875 C 458.023438 561.199219 461.820312 575.855469 458.542969 588.898438 Z M 432.261719 596.394531 C 432.527344 596.398438 432.78125 596.398438 433.015625 596.390625 L 433.042969 596.386719 C 433.992188 596.269531 435.421875 595.933594 435.855469 595.777344 C 437.53125 595.171875 439.125 594.164062 440.597656 592.789062 C 441.515625 591.933594 441.601562 591.84375 442.335938 590.792969 C 442.972656 589.890625 443.519531 588.933594 443.847656 588.167969 C 444.808594 585.910156 445.28125 584.003906 445.476562 581.578125 C 445.667969 579.167969 445.585938 577.402344 445.175781 575.078125 C 444.808594 573.003906 444.261719 571.027344 443.628906 569.515625 C 443.183594 568.449219 442.683594 567.417969 442.132812 566.445312 C 441.550781 565.421875 441.304688 565.058594 440.804688 564.414062 C 440.113281 563.523438 439.371094 562.691406 438.589844 561.941406 C 438.140625 561.511719 437.773438 561.199219 436.890625 560.597656 C 435.222656 559.457031 433.789062 558.835938 431.597656 558.308594 C 431.558594 558.300781 431.523438 558.292969 431.492188 558.285156 L 431.476562 558.28125 C 431.222656 558.238281 430.941406 558.203125 430.613281 558.167969 C 430.320312 558.132812 430.023438 558.113281 429.742188 558.09375 C 429.519531 558.082031 429.304688 558.074219 429.082031 558.070312 C 428.191406 558.058594 428.117188 558.054688 427.070312 558.257812 C 425.867188 558.496094 425.695312 558.550781 424.789062 558.992188 C 423.796875 559.476562 423.796875 559.476562 423.121094 560.09375 C 422.421875 560.734375 421.761719 562.070312 421.480469 563.421875 C 420.871094 566.324219 420.914062 569.621094 420.953125 572.816406 L 420.957031 573.445312 C 420.96875 574.332031 420.992188 575.195312 421.03125 576.011719 C 421.050781 576.421875 421.074219 576.835938 421.101562 577.25 L 421.109375 577.433594 C 421.113281 577.472656 421.121094 577.523438 421.125 577.582031 C 421.289062 579.097656 421.488281 580.863281 421.816406 582.5625 C 422.101562 584.015625 422.476562 585.484375 422.9375 586.929688 C 422.976562 587.027344 423.027344 587.160156 423.097656 587.359375 C 423.164062 587.535156 423.230469 587.71875 423.265625 587.804688 C 423.410156 588.15625 423.566406 588.519531 423.734375 588.871094 C 424.0625 589.585938 424.425781 590.261719 424.800781 590.894531 C 424.902344 591.058594 425.007812 591.222656 425.109375 591.386719 C 425.296875 591.636719 425.496094 591.898438 425.699219 592.144531 C 426.085938 592.617188 426.542969 593.109375 427.101562 593.648438 L 427.109375 593.65625 C 427.160156 593.699219 427.203125 593.730469 427.234375 593.757812 C 427.269531 593.785156 427.300781 593.8125 427.335938 593.839844 L 427.488281 593.949219 C 427.769531 594.152344 428.035156 594.351562 428.289062 594.519531 C 428.53125 594.675781 428.804688 594.832031 429.089844 594.996094 L 429.292969 595.113281 L 429.328125 595.132812 L 429.566406 595.242188 C 430.230469 595.539062 430.839844 595.90625 431.390625 596.34375 C 431.550781 596.355469 431.707031 596.367188 431.855469 596.378906 C 431.992188 596.386719 432.128906 596.390625 432.261719 596.394531 Z M 432.261719 596.394531 " fill-opacity="1" fill-rule="nonzero"/><path fill="#f06063" d="M 134.273438 689.488281 C 134.351562 693.304688 132.023438 696.351562 128.152344 696.890625 C 124.703125 697.375 120.816406 694.332031 120.746094 690.773438 C 120.707031 688.828125 120.546875 686.890625 120.21875 684.972656 C 120.128906 684.464844 119.925781 683.886719 119.902344 683.371094 C 119.90625 683.480469 120.347656 685.070312 120.03125 683.964844 C 119.980469 683.769531 119.929688 683.574219 119.875 683.382812 C 119.628906 682.488281 119.34375 681.609375 119.015625 680.746094 C 118.667969 679.835938 118.265625 678.964844 117.847656 678.085938 C 117.332031 677.003906 118.59375 679.3125 117.957031 678.304688 C 117.722656 677.933594 117.507812 677.558594 117.265625 677.191406 C 116.753906 676.417969 116.179688 675.710938 115.597656 674.992188 C 114.894531 674.121094 116.804688 676.125 115.664062 675.074219 C 115.355469 674.789062 115.050781 674.5 114.730469 674.230469 C 114.363281 673.921875 113.988281 673.628906 113.59375 673.351562 C 113.453125 673.246094 113.289062 673.15625 113.152344 673.046875 C 112.636719 672.621094 113.890625 673.5 113.863281 673.496094 C 113.105469 673.292969 112.328125 672.671875 111.585938 672.375 C 111.328125 672.273438 110.25 671.9375 111.378906 672.265625 C 112.40625 672.570312 111.722656 672.363281 111.503906 672.3125 C 111.070312 672.210938 110.644531 672.097656 110.207031 672.011719 C 109.375 671.851562 108.472656 671.894531 107.65625 671.703125 C 109.234375 672.066406 108.667969 671.710938 108.027344 671.757812 C 107.8125 671.773438 107.601562 671.769531 107.386719 671.78125 C 106.878906 671.804688 106.367188 671.851562 105.859375 671.914062 C 105.328125 671.976562 104.808594 672.070312 104.28125 672.15625 C 103.046875 672.351562 105.515625 671.8125 103.992188 672.210938 C 102.214844 672.671875 100.566406 673.316406 98.894531 674.050781 C 98.152344 674.378906 100.335938 673.132812 99.46875 673.753906 C 99.34375 673.839844 99.210938 673.910156 99.085938 673.988281 C 98.804688 674.171875 98.53125 674.363281 98.265625 674.5625 C 98.003906 674.769531 97.121094 675.5625 98.101562 674.660156 C 99.054688 673.785156 98.273438 674.523438 98.058594 674.785156 C 97.960938 674.90625 97.878906 675.046875 97.777344 675.15625 C 97.1875 675.78125 98.457031 674.304688 98.335938 674.257812 C 98.300781 674.246094 98.003906 674.917969 97.992188 674.941406 C 97.515625 675.789062 98.234375 673.8125 98.238281 674.066406 C 98.246094 674.265625 98.140625 674.589844 98.085938 674.792969 C 97.765625 676.023438 98.007812 673.34375 98.085938 674.035156 C 98.113281 674.285156 98.105469 674.542969 98.132812 674.796875 C 98.144531 674.890625 98.253906 675.574219 98.253906 675.574219 C 98.402344 675.53125 97.601562 673.425781 98.105469 674.816406 C 98.320312 675.402344 98.539062 675.972656 98.785156 676.546875 C 99.214844 677.542969 98.671875 676.292969 98.429688 675.933594 C 98.605469 676.199219 98.746094 676.492188 98.910156 676.761719 C 99.660156 677.984375 100.515625 679.132812 101.433594 680.234375 C 101.90625 680.808594 102.425781 681.34375 102.902344 681.914062 C 101.375 680.101562 103.082031 682.082031 103.558594 682.550781 C 104.6875 683.671875 105.863281 684.753906 107.0625 685.804688 C 109.460938 687.902344 111.960938 689.882812 114.511719 691.792969 C 118.882812 695.066406 123.496094 697.984375 127.515625 701.710938 C 133.125 706.902344 138.148438 712.925781 141.25 719.964844 C 144.585938 727.53125 144.425781 735.921875 139.613281 742.785156 C 134.558594 750.007812 124.976562 754.433594 116.246094 752.886719 C 107.867188 751.398438 100.597656 745.414062 95.941406 738.511719 C 91.253906 731.5625 88.242188 722.675781 90.023438 714.269531 C 90.808594 710.546875 94.136719 708.269531 97.894531 708.757812 C 101.449219 709.21875 104.144531 713.148438 103.410156 716.628906 C 103.226562 717.488281 103.167969 718.339844 103.042969 719.203125 C 102.941406 719.910156 103.066406 718.179688 103.074219 718.265625 C 103.097656 718.4375 103.070312 718.628906 103.074219 718.800781 C 103.089844 719.214844 103.09375 719.636719 103.121094 720.050781 C 103.1875 720.96875 103.335938 721.867188 103.480469 722.773438 C 103.714844 724.242188 103.109375 721.488281 103.441406 722.636719 C 103.546875 723 103.636719 723.367188 103.75 723.726562 C 104.304688 725.539062 105.101562 727.199219 105.890625 728.910156 C 106.246094 729.679688 105.15625 727.6875 105.621094 728.394531 C 105.765625 728.613281 105.882812 728.851562 106.019531 729.074219 C 106.257812 729.472656 106.503906 729.859375 106.753906 730.246094 C 107.226562 730.960938 107.722656 731.660156 108.25 732.339844 C 108.570312 732.753906 108.898438 733.160156 109.242188 733.5625 C 109.410156 733.761719 109.597656 733.949219 109.757812 734.15625 C 110.199219 734.71875 109.203125 733.582031 109.234375 733.605469 C 109.925781 734.171875 110.511719 734.898438 111.1875 735.492188 C 111.851562 736.082031 112.546875 736.640625 113.265625 737.164062 C 113.460938 737.304688 114.796875 738.171875 113.769531 737.539062 C 112.789062 736.933594 114.035156 737.6875 114.304688 737.839844 C 115.09375 738.277344 115.910156 738.671875 116.75 739.007812 C 117.128906 739.160156 117.546875 739.261719 117.914062 739.433594 C 117.972656 739.460938 116.402344 739.042969 117.078125 739.15625 C 117.246094 739.1875 117.417969 739.25 117.585938 739.289062 C 118.425781 739.492188 119.3125 739.503906 120.144531 739.699219 C 120.785156 739.851562 119.136719 739.675781 119.175781 739.671875 C 119.390625 739.640625 119.648438 739.675781 119.867188 739.667969 C 120.269531 739.65625 120.667969 739.628906 121.066406 739.585938 C 121.460938 739.542969 121.875 739.414062 122.269531 739.398438 C 120.441406 739.464844 121.285156 739.652344 122.03125 739.414062 C 122.429688 739.285156 122.828125 739.140625 123.214844 738.976562 C 123.492188 738.859375 124.753906 738.21875 123.820312 738.726562 C 122.777344 739.292969 124.109375 738.542969 124.214844 738.480469 C 124.40625 738.363281 124.597656 738.246094 124.789062 738.125 C 125.214844 737.855469 125.628906 737.574219 126.039062 737.28125 C 126.371094 737.039062 126.699219 736.789062 127.015625 736.53125 C 127.195312 736.386719 128.445312 735.292969 127.550781 736.097656 C 126.683594 736.886719 127.863281 735.734375 128.066406 735.5 C 128.339844 735.195312 128.597656 734.875 128.84375 734.550781 C 128.941406 734.414062 129.03125 734.265625 129.140625 734.132812 C 129.65625 733.503906 128.378906 735.476562 128.753906 734.761719 C 128.929688 734.425781 129.128906 734.105469 129.296875 733.761719 C 129.480469 733.382812 129.617188 732.984375 129.796875 732.601562 C 130.257812 731.636719 129.433594 734.140625 129.652344 733.101562 C 129.796875 732.394531 129.949219 731.710938 130.050781 730.992188 C 130.269531 729.449219 130.128906 732.308594 130.0625 731.28125 C 130.035156 730.921875 130.046875 730.5625 130.027344 730.203125 C 129.980469 729.523438 129.878906 728.851562 129.769531 728.179688 C 129.507812 726.550781 130.105469 729.304688 129.828125 728.394531 C 129.71875 728.027344 129.621094 727.660156 129.503906 727.296875 C 129.265625 726.554688 128.988281 725.828125 128.683594 725.113281 C 128.367188 724.375 128.003906 723.664062 127.652344 722.941406 C 127.285156 722.195312 128.421875 724.289062 127.988281 723.574219 C 127.898438 723.425781 127.816406 723.265625 127.726562 723.117188 C 127.523438 722.761719 127.308594 722.40625 127.089844 722.054688 C 126.199219 720.632812 125.226562 719.261719 124.1875 717.941406 C 123.632812 717.230469 123.054688 716.53125 122.460938 715.847656 C 122.1875 715.53125 121.902344 715.21875 121.625 714.90625 C 120.652344 713.808594 122.480469 715.785156 121.714844 714.992188 C 113.464844 706.5 102.765625 700.988281 94.425781 692.546875 C 89.902344 687.96875 84.742188 682.140625 84.558594 675.320312 C 84.320312 666.660156 91.484375 661.507812 99.15625 659.511719 C 103.925781 658.269531 109.019531 657.605469 113.859375 658.933594 C 118.058594 660.085938 121.914062 662.097656 124.957031 665.25 C 131.1875 671.714844 134.09375 680.605469 134.273438 689.488281 Z M 134.273438 689.488281 " fill-opacity="1" fill-rule="nonzero"/><path fill="#febe5b" d="M 198.128906 667.65625 C 197.011719 667.726562 195.902344 667.824219 194.792969 667.960938 C 194.332031 668.019531 193.871094 668.082031 193.410156 668.152344 C 192.984375 668.21875 192.695312 668.242188 192.703125 668.234375 C 190.871094 668.496094 189.023438 669.050781 187.25 669.503906 C 184.285156 670.265625 181.355469 671.140625 178.417969 671.996094 C 179.929688 695.933594 181.441406 719.871094 182.957031 743.808594 C 183.199219 747.605469 180.050781 750.566406 176.449219 750.875 C 172.730469 751.195312 169.601562 747.910156 169.378906 744.367188 C 167.921875 721.34375 166.464844 698.316406 165.011719 675.292969 C 164.308594 675.421875 163.605469 675.546875 162.898438 675.660156 C 158.5 676.363281 154.226562 676.355469 149.804688 675.929688 C 146.019531 675.570312 144.121094 671 144.71875 667.777344 C 145.019531 666.144531 146.292969 664.476562 147.667969 663.59375 C 149.351562 662.515625 150.96875 662.511719 152.871094 662.695312 C 151.203125 662.535156 152.898438 662.671875 153.277344 662.6875 C 153.828125 662.710938 154.382812 662.71875 154.933594 662.722656 C 155.851562 662.71875 156.769531 662.6875 157.683594 662.625 C 158.601562 662.566406 159.515625 662.472656 160.425781 662.359375 C 160.976562 662.292969 161.519531 662.207031 162.066406 662.128906 C 162.132812 662.121094 162.195312 662.113281 162.246094 662.105469 C 165.980469 661.347656 169.652344 660.390625 173.3125 659.332031 C 181.265625 657.035156 189.257812 654.601562 197.570312 654.085938 C 201.371094 653.847656 204.328125 656.988281 204.636719 660.589844 C 204.957031 664.304688 201.671875 667.4375 198.128906 667.65625 Z M 198.128906 667.65625 " fill-opacity="1" fill-rule="nonzero"/><path fill="#7fbae6" d="M 269.445312 699.324219 C 269.992188 707.257812 270 715.269531 268.867188 723.15625 C 267.921875 729.726562 265.855469 736.644531 261.304688 741.660156 C 256.539062 746.917969 249.109375 749.035156 242.226562 747.46875 C 235.710938 745.984375 230.605469 741.15625 227.183594 735.613281 C 223.496094 729.632812 221.214844 722.78125 219.5625 715.996094 C 217.675781 708.21875 216.484375 700.257812 215.644531 692.308594 C 214.472656 681.203125 214.179688 670.070312 213.878906 658.917969 C 213.773438 655.113281 216.671875 652.175781 220.390625 651.855469 C 224.011719 651.542969 227.363281 654.808594 227.457031 658.363281 C 227.476562 659.078125 227.492188 659.792969 227.503906 660.507812 C 227.75 672.171875 228.230469 683.835938 229.644531 695.429688 C 229.863281 697.253906 230.109375 699.082031 230.382812 700.898438 C 230.515625 701.808594 230.660156 702.71875 230.808594 703.628906 C 230.882812 704.050781 230.957031 704.476562 231.027344 704.90625 C 231.011719 704.8125 230.996094 704.730469 230.988281 704.648438 C 230.988281 704.667969 230.992188 704.683594 230.992188 704.699219 C 231.632812 708.15625 232.386719 711.59375 233.320312 714.984375 C 234.183594 718.109375 235.203125 721.203125 236.472656 724.1875 C 236.609375 724.507812 236.753906 724.824219 236.894531 725.140625 C 237.1875 725.722656 237.484375 726.304688 237.800781 726.875 C 238.476562 728.085938 239.214844 729.261719 240.039062 730.375 C 240.175781 730.5625 240.316406 730.746094 240.460938 730.925781 C 240.804688 731.296875 241.148438 731.667969 241.515625 732.019531 C 241.914062 732.398438 242.339844 732.742188 242.761719 733.097656 C 242.84375 733.148438 242.921875 733.203125 243.007812 733.253906 C 243.476562 733.535156 243.964844 733.765625 244.449219 734.003906 C 244.535156 734.03125 244.617188 734.058594 244.703125 734.082031 C 245.1875 734.214844 245.671875 734.296875 246.164062 734.386719 C 246.308594 734.394531 246.457031 734.398438 246.605469 734.394531 C 247.136719 734.390625 247.660156 734.332031 248.1875 734.285156 C 248.328125 734.25 248.46875 734.21875 248.605469 734.175781 C 248.90625 734.089844 249.199219 733.976562 249.496094 733.882812 C 249.570312 733.855469 249.652344 733.820312 249.726562 733.785156 C 249.964844 733.625 250.175781 733.46875 250.25 733.421875 C 250.382812 733.332031 250.511719 733.238281 250.640625 733.140625 C 250.984375 732.785156 251.335938 732.441406 251.65625 732.066406 C 251.6875 732.027344 251.855469 731.808594 252.015625 731.597656 C 252.308594 731.136719 252.582031 730.664062 252.832031 730.175781 C 253.140625 729.585938 253.425781 728.976562 253.679688 728.359375 C 253.703125 728.3125 253.734375 728.230469 253.773438 728.140625 C 253.804688 728.050781 253.828125 727.972656 253.847656 727.925781 C 254.308594 726.542969 254.675781 725.132812 254.980469 723.714844 C 255.320312 722.132812 255.578125 720.53125 255.777344 718.925781 C 255.835938 718.480469 255.878906 718.039062 255.929688 717.597656 C 255.992188 716.824219 256.046875 716.050781 256.085938 715.277344 C 256.480469 707.914062 256.050781 700.515625 255.28125 693.195312 C 254.90625 689.628906 254.4375 686.074219 253.898438 682.53125 C 253.640625 680.847656 253.363281 679.164062 253.074219 677.484375 C 253.074219 677.480469 253.074219 677.476562 253.074219 677.476562 C 253.003906 677.097656 252.933594 676.726562 252.867188 676.351562 C 252.734375 675.625 252.597656 674.902344 252.457031 674.179688 C 251.597656 669.753906 250.675781 665.320312 249.453125 660.980469 C 248.421875 657.316406 250.296875 653.753906 253.851562 652.441406 C 257.207031 651.199219 261.433594 653.414062 262.398438 656.835938 C 262.617188 657.613281 262.824219 658.398438 263.019531 659.183594 C 266.320312 672.28125 268.515625 685.847656 269.445312 699.324219 Z M 249.605469 733.871094 C 249.226562 734.011719 248.765625 734.191406 248.84375 734.226562 C 248.945312 734.277344 249.28125 734.078125 249.605469 733.871094 Z M 252.316406 731.226562 C 252.3125 731.222656 252.304688 731.230469 252.296875 731.246094 C 252.304688 731.238281 252.316406 731.222656 252.316406 731.226562 Z M 252.316406 731.226562 " fill-opacity="1" fill-rule="nonzero"/><path fill="#39bca7" d="M 339.828125 714.804688 C 336.332031 724.539062 329.867188 732.804688 321.125 738.402344 C 313.183594 743.488281 303.496094 746.347656 294.039062 745.875 C 290.226562 745.683594 287.3125 743.3125 286.972656 739.367188 C 286.679688 735.941406 289.921875 732.125 293.480469 732.300781 C 293.996094 732.328125 294.507812 732.34375 295.023438 732.347656 C 294.113281 729.09375 293.246094 725.824219 292.429688 722.539062 C 287.195312 701.515625 283.757812 680.015625 282.203125 658.40625 C 282.1875 658.226562 282.1875 658.046875 282.1875 657.863281 C 282.183594 657.832031 282.175781 657.796875 282.175781 657.761719 C 281.871094 654.246094 285.125 650.648438 288.683594 650.699219 C 299.574219 650.851562 310.589844 654.007812 319.710938 660.023438 C 328.503906 665.824219 335.503906 673.691406 339.378906 683.558594 C 343.214844 693.316406 343.371094 704.945312 339.828125 714.804688 Z M 328.535156 695.871094 C 328.488281 695.394531 328.421875 694.921875 328.355469 694.449219 C 328.292969 694.222656 328.242188 693.753906 328.230469 693.695312 C 328.019531 692.703125 327.769531 691.714844 327.480469 690.738281 C 327.15625 689.648438 326.78125 688.566406 326.359375 687.507812 C 326.183594 687.066406 325.960938 686.636719 325.800781 686.191406 C 325.773438 686.136719 325.75 686.082031 325.722656 686.027344 C 324.75 684.105469 323.613281 682.273438 322.339844 680.539062 C 321.976562 680.039062 321.585938 679.554688 321.207031 679.0625 C 321.203125 679.054688 321.199219 679.050781 321.191406 679.042969 C 321.171875 679.019531 321.148438 678.996094 321.128906 678.96875 C 320.476562 678.257812 319.828125 677.546875 319.140625 676.867188 C 317.625 675.363281 316 673.96875 314.292969 672.6875 C 314.269531 672.671875 314.246094 672.652344 314.21875 672.636719 C 314.171875 672.59375 314.109375 672.542969 314.027344 672.488281 C 313.917969 672.414062 313.808594 672.34375 313.703125 672.269531 C 313.675781 672.246094 313.644531 672.222656 313.625 672.195312 C 313.640625 672.214844 313.652344 672.230469 313.667969 672.25 C 313.328125 672.019531 312.988281 671.792969 312.644531 671.574219 C 311.832031 671.054688 311 670.5625 310.15625 670.09375 C 308.355469 669.085938 306.492188 668.1875 304.582031 667.402344 C 304.285156 667.277344 303.808594 667.15625 303.511719 666.988281 C 303.261719 666.902344 303.015625 666.8125 302.769531 666.730469 C 301.800781 666.40625 300.820312 666.113281 299.835938 665.847656 C 298.691406 665.539062 297.535156 665.273438 296.375 665.042969 C 296.695312 668.582031 297.0625 672.117188 297.488281 675.648438 C 298.117188 680.851562 298.855469 686.042969 299.707031 691.210938 C 299.824219 691.921875 299.945312 692.632812 300.066406 693.34375 C 300.101562 693.566406 300.1875 694.042969 300.230469 694.292969 C 300.445312 695.5 300.667969 696.710938 300.894531 697.917969 C 301.371094 700.441406 301.875 702.964844 302.402344 705.476562 C 304.125 713.648438 306.136719 721.753906 308.417969 729.789062 C 308.449219 729.777344 308.480469 729.765625 308.515625 729.753906 C 309.003906 729.554688 309.484375 729.335938 309.96875 729.132812 C 310.089844 729.070312 310.21875 729.007812 310.339844 728.945312 C 312.351562 727.914062 314.277344 726.722656 316.085938 725.382812 C 316.550781 725.039062 316.996094 724.683594 317.445312 724.328125 C 317.476562 724.296875 317.515625 724.265625 317.554688 724.226562 C 318.296875 723.550781 319.035156 722.867188 319.734375 722.144531 C 320.484375 721.371094 321.203125 720.566406 321.882812 719.734375 C 322.183594 719.367188 322.480469 718.996094 322.765625 718.617188 C 322.792969 718.582031 322.820312 718.542969 322.847656 718.507812 C 323.097656 717.636719 324.128906 716.558594 324.578125 715.769531 C 325.054688 714.925781 325.5 714.070312 325.914062 713.191406 C 326.179688 712.621094 326.421875 712.042969 326.671875 711.464844 C 326.699219 711.402344 326.722656 711.34375 326.746094 711.296875 C 327.078125 710.289062 327.402344 709.285156 327.667969 708.261719 C 327.960938 707.128906 328.203125 705.980469 328.390625 704.824219 C 328.476562 704.308594 328.550781 703.792969 328.613281 703.277344 C 328.628906 703.164062 328.636719 703.050781 328.648438 702.9375 C 328.734375 700.570312 328.78125 698.238281 328.535156 695.871094 Z M 313.667969 672.246094 C 313.679688 672.253906 313.691406 672.261719 313.703125 672.269531 C 313.847656 672.40625 314.054688 672.527344 314.21875 672.636719 C 314.46875 672.875 314.210938 672.90625 313.667969 672.246094 Z M 322.925781 718.402344 C 322.996094 718.3125 323.0625 718.21875 323.132812 718.128906 C 323.699219 717.382812 323.15625 718.074219 322.925781 718.402344 Z M 328.335938 694.296875 C 328.328125 694.226562 328.316406 694.15625 328.308594 694.082031 C 328.1875 693.140625 328.261719 693.863281 328.335938 694.296875 Z M 328.335938 694.296875 " fill-opacity="1" fill-rule="nonzero"/><path fill="#fcb4c4" d="M 405.859375 660.171875 C 406.882812 668.207031 404.234375 676.054688 401.871094 683.609375 C 397.902344 696.28125 393.785156 708.992188 388.144531 721.039062 C 386.738281 724.042969 385.234375 727 383.609375 729.894531 C 382.039062 732.695312 380.347656 735.605469 378.058594 737.886719 C 372.507812 743.425781 363.679688 745.230469 357.386719 739.753906 C 354.519531 737.261719 354.667969 732.90625 356.992188 730.15625 C 359.316406 727.40625 363.578125 727.429688 366.28125 729.519531 C 366.386719 729.535156 366.453125 729.542969 366.480469 729.546875 C 366.609375 729.519531 366.738281 729.496094 366.839844 729.464844 C 366.894531 729.445312 367.011719 729.40625 367.140625 729.359375 C 367.183594 729.339844 367.21875 729.316406 367.25 729.296875 C 367.265625 729.285156 367.507812 729.121094 367.722656 728.976562 C 367.851562 728.871094 368 728.746094 368.0625 728.6875 C 368.539062 728.210938 368.980469 727.703125 369.394531 727.175781 C 369.492188 727.050781 369.589844 726.925781 369.683594 726.792969 C 369.761719 726.664062 369.828125 726.539062 369.84375 726.507812 C 370.253906 725.863281 370.644531 725.207031 371.023438 724.546875 C 373.894531 719.554688 376.390625 714.355469 378.632812 709.058594 C 379.242188 707.621094 379.832031 706.171875 380.402344 704.71875 C 380.613281 704.195312 380.816406 703.667969 381.019531 703.144531 C 380.988281 703.132812 380.953125 703.125 380.921875 703.113281 C 376.839844 701.589844 372.726562 700.105469 368.949219 697.910156 C 364.007812 695.03125 360.355469 691.222656 357.460938 686.296875 C 352.019531 677.039062 351.207031 666.628906 349.554688 656.253906 C 348.953125 652.496094 352.75 649.476562 356.066406 649.1875 C 360.019531 648.847656 362.578125 652.199219 363.132812 655.695312 C 363.523438 658.148438 363.867188 660.609375 364.226562 663.070312 C 364.378906 664.152344 364.542969 665.234375 364.71875 666.320312 C 364.730469 666.398438 364.742188 666.476562 364.757812 666.558594 C 364.964844 666.875 364.960938 667.6875 365.039062 668.0625 C 365.449219 670.054688 365.953125 672.027344 366.613281 673.953125 C 366.949219 674.925781 367.351562 675.859375 367.734375 676.8125 C 367.78125 676.90625 367.828125 677.003906 367.875 677.09375 C 368.128906 677.585938 368.390625 678.070312 368.664062 678.550781 C 369.28125 679.632812 369.953125 680.6875 370.671875 681.707031 C 370.976562 682.144531 371.308594 682.5625 371.613281 682.996094 C 371.640625 683.039062 371.664062 683.074219 371.6875 683.105469 C 371.742188 683.164062 371.804688 683.226562 371.886719 683.304688 C 372.023438 683.445312 372.988281 684.339844 373.609375 684.855469 C 373.703125 684.910156 373.875 685.019531 374.175781 685.210938 C 374.679688 685.53125 375.191406 685.835938 375.710938 686.128906 C 377.453125 687.117188 379.277344 687.964844 381.125 688.742188 C 381.914062 689.070312 382.710938 689.386719 383.511719 689.691406 C 383.371094 689.640625 383.210938 689.582031 383.023438 689.515625 C 383.347656 689.632812 383.671875 689.757812 383.992188 689.878906 C 384.503906 690.066406 384.980469 690.289062 385.433594 690.539062 C 386.890625 686.097656 388.292969 681.632812 389.679688 677.167969 C 390.578125 674.285156 391.453125 671.382812 392.027344 668.414062 C 392.175781 667.628906 392.296875 666.839844 392.410156 666.050781 C 392.421875 665.980469 392.429688 665.925781 392.4375 665.867188 C 392.460938 665.542969 392.484375 665.21875 392.492188 664.898438 C 392.535156 663.5 392.457031 662.117188 392.28125 660.734375 C 391.800781 656.957031 395.378906 653.960938 398.789062 653.667969 C 402.664062 653.335938 405.410156 656.660156 405.859375 660.171875 Z M 365.917969 729.535156 C 365.890625 729.527344 365.863281 729.519531 365.839844 729.507812 C 365.714844 729.511719 365.617188 729.519531 365.589844 729.546875 C 365.601562 729.535156 365.75 729.535156 365.917969 729.535156 Z M 366.300781 729.535156 C 366.304688 729.535156 366.308594 729.542969 366.3125 729.542969 C 366.410156 729.546875 366.476562 729.546875 366.464844 729.546875 C 366.464844 729.546875 366.46875 729.546875 366.472656 729.546875 C 366.476562 729.546875 366.476562 729.546875 366.476562 729.546875 C 366.441406 729.542969 366.378906 729.539062 366.300781 729.535156 Z M 369.660156 726.835938 C 369.597656 726.921875 369.523438 727.023438 369.429688 727.152344 C 369.46875 727.148438 369.570312 726.992188 369.660156 726.835938 Z M 374.140625 685.226562 C 374.136719 685.226562 373.925781 685.089844 373.75 684.972656 C 373.964844 685.144531 374.117188 685.246094 374.140625 685.226562 Z M 374.140625 685.226562 " fill-opacity="1" fill-rule="nonzero"/><path fill="#efd1bd" d="M 616.667969 641.40625 L 539.300781 650.546875 L 563.257812 594.644531 Z M 616.667969 641.40625 " fill-opacity="1" fill-rule="nonzero"/><path fill="#f4dcc9" d="M 524.371094 565.785156 L 524.371094 571.171875 C 524.371094 571.171875 534.269531 650.09375 539.300781 650.546875 C 544.332031 651.003906 567.175781 607.441406 567.175781 607.441406 L 764.214844 478.226562 Z M 524.371094 565.785156 " fill-opacity="1" fill-rule="nonzero"/><path fill="#ffefdf" d="M 524.371094 571.171875 C 505.578125 569.933594 446.996094 514.8125 453.492188 503.160156 C 460.097656 491.316406 764.214844 478.226562 764.214844 478.226562 C 764.214844 478.226562 654.105469 676.125 636.933594 677.339844 C 624.109375 678.246094 565.933594 616.085938 567.175781 607.441406 C 568.417969 598.796875 753.574219 483.71875 753.574219 483.71875 C 753.574219 483.71875 542.75 572.378906 524.371094 571.171875 Z M 524.371094 571.171875 " fill-opacity="1" fill-rule="nonzero"/></svg>