<?xml version="1.0" encoding="utf-8"?>
<svg xmlns="http://www.w3.org/2000/svg" viewBox="0 0 128 128" width="128px" height="128px">
  <defs>
    <linearGradient id="paint0_linear_3_13783" x1="40" y1="-1.09798e-07" x2="40" y2="80" gradientUnits="userSpaceOnUse" gradientTransform="matrix(0.793991, 0.607926, -0.218003, 0.284685, 42.170785, 55.287461)" spreadMethod="reflect">
      <stop style="stop-color: rgb(70, 170, 228);"/>
      <stop offset="1" style="stop-color: rgb(15, 139, 239);"/>
    </linearGradient>
    <linearGradient id="paint1_linear_3_13783" x1="39.75" y1="-0.25" x2="39.75" y2="43.25" gradientUnits="userSpaceOnUse" gradientTransform="matrix(0.979051, -0.203614, 0.313223, 1.506073, 9.771126, 25.56781)">
      <stop style="stop-color: rgb(105, 132, 214);"/>
      <stop offset="1" stop-color="#69C581"/>
    </linearGradient>
  </defs>
  <path d="M 102.486 31.475 C 102.32 24.808 98.803 21.475 91.936 21.475 L 32.986 21.475 C 26.153 21.475 22.653 24.808 22.486 31.475 L 22.486 87.425 C 22.653 94.125 26.153 97.475 32.986 97.475 L 91.936 97.475 C 98.803 97.475 102.32 94.125 102.486 87.425 L 102.486 31.475 Z" fill="url(#paint0_linear_3_13783)" style="stroke-width: 1; transform-origin: 65.538px 57.475px;"/>
  <path d="M 102.486 33.289 C 102.486 22.746 98.97 17.475 91.936 17.475 L 32.986 17.475 C 25.986 17.475 22.486 22.746 22.486 33.289 L 22.486 38.56 C 22.653 28.519 26.153 23.499 32.986 23.499 L 91.936 23.499 C 98.803 23.499 102.32 28.519 102.486 38.56 L 102.486 33.289 Z" fill="url(#paint1_linear_3_13783)" style="stroke-width: 1; transform-origin: 65.538px 57.475px;"/>
  <path d="M 54.653 55.437 C 52.72 53.47 50.37 52.487 47.603 52.487 C 44.836 52.487 42.486 53.47 40.553 55.437 C 38.586 57.37 37.603 59.72 37.603 62.487 L 57.603 62.487 C 57.603 59.72 56.62 57.37 54.653 55.437 Z" fill="white" style="stroke-width: 1; transform-origin: 65.538px 57.475px;"/>
  <path d="M 51.853 58.237 C 50.686 57.07 49.27 56.487 47.603 56.487 C 45.97 56.487 44.57 57.07 43.403 58.237 C 42.203 59.403 41.603 60.82 41.603 62.487 L 53.603 62.487 C 53.603 60.82 53.02 59.403 51.853 58.237 Z" fill="#3D465D" style="stroke-width: 1; transform-origin: 65.538px 57.475px;"/>
  <path d="M 84.653 55.437 C 82.72 53.47 80.37 52.487 77.603 52.487 C 74.836 52.487 72.486 53.47 70.553 55.437 C 68.586 57.37 67.603 59.72 67.603 62.487 L 87.603 62.487 C 87.603 59.72 86.62 57.37 84.653 55.437 Z" fill="white" style="stroke-width: 1; transform-origin: 65.538px 57.475px;"/>
  <path d="M 81.853 58.237 C 80.686 57.07 79.27 56.487 77.603 56.487 C 75.97 56.487 74.57 57.07 73.403 58.237 C 72.203 59.403 71.603 60.82 71.603 62.487 L 83.603 62.487 C 83.603 60.82 83.02 59.403 81.853 58.237 Z" fill="#3D465D" style="stroke-width: 1; transform-origin: 65.538px 57.475px;"/>
  <path d="M 36.553 55.087 L 37.353 57.987 C 37.486 58.553 37.786 58.97 38.253 59.237 C 38.72 59.503 39.22 59.57 39.753 59.437 L 55.203 55.287 C 55.77 55.153 56.186 54.837 56.453 54.337 C 56.72 53.903 56.786 53.403 56.653 52.837 L 55.853 49.937 C 55.72 49.403 55.42 48.987 54.953 48.687 C 54.486 48.453 53.97 48.403 53.403 48.537 L 37.953 52.687 C 37.42 52.82 37.02 53.12 36.753 53.587 C 36.486 54.053 36.42 54.553 36.553 55.087 Z" fill="#3D465D" style="stroke-width: 1; transform-origin: 65.538px 57.475px;"/>
  <path d="M 68.803 49.437 C 69.036 49.87 69.436 50.153 70.003 50.287 L 85.453 54.437 C 85.986 54.603 86.503 54.57 87.003 54.337 C 87.436 54.037 87.72 53.62 87.853 53.087 L 88.653 50.187 C 88.786 49.62 88.736 49.12 88.503 48.687 C 88.203 48.187 87.786 47.853 87.253 47.687 L 71.803 43.537 C 71.236 43.403 70.736 43.487 70.303 43.787 C 69.803 44.02 69.486 44.42 69.353 44.987 L 68.553 47.887 C 68.42 48.42 68.503 48.937 68.803 49.437 Z" fill="#3D465D" style="stroke-width: 1; transform-origin: 65.538px 57.475px;"/>
  <path d="M 72.553 69.386 C 72.086 69.086 71.57 69.02 71.003 69.186 C 70.47 69.32 70.053 69.603 69.753 70.036 C 69.486 70.403 69.103 70.753 68.603 71.086 C 67.37 71.853 65.92 72.236 64.253 72.236 C 63.486 72.236 62.77 72.17 62.103 72.036 C 61.536 71.936 61.02 72.036 60.553 72.336 C 60.086 72.57 59.786 72.97 59.653 73.536 C 59.52 74.036 59.62 74.52 59.953 74.986 C 60.22 75.386 60.653 75.653 61.253 75.786 C 62.153 75.986 63.153 76.086 64.253 76.086 C 66.82 76.086 69.036 75.486 70.903 74.286 L 70.853 74.336 C 71.986 73.636 72.82 72.853 73.353 71.986 C 73.62 71.52 73.686 71.036 73.553 70.536 C 73.386 70.003 73.053 69.62 72.553 69.386 Z" fill="#3D465D" style="stroke-width: 1; transform-origin: 65.538px 57.475px;"/>
</svg>